<mxfile host="app.diagrams.net" modified="2024-01-11T15:07:52.898Z" agent="Mozilla/5.0 (Windows NT 10.0; Win64; x64) AppleWebKit/537.36 (KHTML, like Gecko) Chrome/120.0.0.0 Safari/537.36 Edg/120.0.0.0" etag="gz981JHW9qcOLt8riMjT" version="22.1.18" type="github">
  <diagram id="C5RBs43oDa-KdzZeNtuy" name="Page-1">
    <mxGraphModel dx="2927" dy="1082" grid="1" gridSize="10" guides="1" tooltips="1" connect="1" arrows="1" fold="1" page="1" pageScale="1" pageWidth="827" pageHeight="1169" math="0" shadow="0">
      <root>
        <mxCell id="WIyWlLk6GJQsqaUBKTNV-0" />
        <mxCell id="WIyWlLk6GJQsqaUBKTNV-1" parent="WIyWlLk6GJQsqaUBKTNV-0" />
        <mxCell id="TQhRW5g1vFuZufK2VAa3-180" style="edgeStyle=orthogonalEdgeStyle;rounded=0;orthogonalLoop=1;jettySize=auto;html=1;entryX=0.5;entryY=0;entryDx=0;entryDy=0;" parent="WIyWlLk6GJQsqaUBKTNV-1" source="WIyWlLk6GJQsqaUBKTNV-3" target="TQhRW5g1vFuZufK2VAa3-169" edge="1">
          <mxGeometry relative="1" as="geometry" />
        </mxCell>
        <mxCell id="WIyWlLk6GJQsqaUBKTNV-3" value="Launch Application" style="rounded=1;whiteSpace=wrap;html=1;fontSize=12;glass=0;strokeWidth=1;shadow=0;fillColor=#CCFFE6;" parent="WIyWlLk6GJQsqaUBKTNV-1" vertex="1">
          <mxGeometry x="160" y="10" width="120" height="40" as="geometry" />
        </mxCell>
        <mxCell id="TQhRW5g1vFuZufK2VAa3-177" style="edgeStyle=orthogonalEdgeStyle;rounded=0;orthogonalLoop=1;jettySize=auto;html=1;entryX=0;entryY=0.5;entryDx=0;entryDy=0;" parent="WIyWlLk6GJQsqaUBKTNV-1" source="WIyWlLk6GJQsqaUBKTNV-6" target="TQhRW5g1vFuZufK2VAa3-5" edge="1">
          <mxGeometry relative="1" as="geometry" />
        </mxCell>
        <mxCell id="TQhRW5g1vFuZufK2VAa3-179" value="No" style="edgeLabel;html=1;align=center;verticalAlign=middle;resizable=0;points=[];" parent="TQhRW5g1vFuZufK2VAa3-177" vertex="1" connectable="0">
          <mxGeometry x="0.0027" relative="1" as="geometry">
            <mxPoint y="-10" as="offset" />
          </mxGeometry>
        </mxCell>
        <mxCell id="WIyWlLk6GJQsqaUBKTNV-6" value="Has Account?" style="rhombus;whiteSpace=wrap;html=1;shadow=0;fontFamily=Helvetica;fontSize=12;align=center;strokeWidth=1;spacing=6;spacingTop=-4;" parent="WIyWlLk6GJQsqaUBKTNV-1" vertex="1">
          <mxGeometry x="170" y="170" width="100" height="80" as="geometry" />
        </mxCell>
        <mxCell id="TQhRW5g1vFuZufK2VAa3-15" style="edgeStyle=orthogonalEdgeStyle;rounded=0;orthogonalLoop=1;jettySize=auto;html=1;exitX=0.5;exitY=1;exitDx=0;exitDy=0;entryX=0.5;entryY=0;entryDx=0;entryDy=0;" parent="WIyWlLk6GJQsqaUBKTNV-1" source="TQhRW5g1vFuZufK2VAa3-40" target="TQhRW5g1vFuZufK2VAa3-41" edge="1">
          <mxGeometry relative="1" as="geometry" />
        </mxCell>
        <mxCell id="TQhRW5g1vFuZufK2VAa3-3" style="edgeStyle=orthogonalEdgeStyle;rounded=0;orthogonalLoop=1;jettySize=auto;html=1;entryX=0;entryY=0.5;entryDx=0;entryDy=0;" parent="WIyWlLk6GJQsqaUBKTNV-1" source="TQhRW5g1vFuZufK2VAa3-1" target="TQhRW5g1vFuZufK2VAa3-33" edge="1">
          <mxGeometry relative="1" as="geometry">
            <mxPoint x="480" y="440" as="targetPoint" />
          </mxGeometry>
        </mxCell>
        <mxCell id="TQhRW5g1vFuZufK2VAa3-4" value="Google" style="edgeLabel;html=1;align=center;verticalAlign=middle;resizable=0;points=[];" parent="TQhRW5g1vFuZufK2VAa3-3" vertex="1" connectable="0">
          <mxGeometry x="0.2152" relative="1" as="geometry">
            <mxPoint x="-17" y="-10" as="offset" />
          </mxGeometry>
        </mxCell>
        <mxCell id="TQhRW5g1vFuZufK2VAa3-172" style="edgeStyle=orthogonalEdgeStyle;rounded=0;orthogonalLoop=1;jettySize=auto;html=1;entryX=0.5;entryY=0;entryDx=0;entryDy=0;" parent="WIyWlLk6GJQsqaUBKTNV-1" source="TQhRW5g1vFuZufK2VAa3-1" target="TQhRW5g1vFuZufK2VAa3-40" edge="1">
          <mxGeometry relative="1" as="geometry" />
        </mxCell>
        <mxCell id="TQhRW5g1vFuZufK2VAa3-1" value="What method?" style="rhombus;whiteSpace=wrap;html=1;shadow=0;fontFamily=Helvetica;fontSize=12;align=center;strokeWidth=1;spacing=6;spacingTop=-4;" parent="WIyWlLk6GJQsqaUBKTNV-1" vertex="1">
          <mxGeometry x="170" y="400" width="100" height="80" as="geometry" />
        </mxCell>
        <mxCell id="TQhRW5g1vFuZufK2VAa3-6" style="edgeStyle=orthogonalEdgeStyle;rounded=0;orthogonalLoop=1;jettySize=auto;html=1;exitX=1;exitY=0.5;exitDx=0;exitDy=0;entryX=0.5;entryY=0;entryDx=0;entryDy=0;" parent="WIyWlLk6GJQsqaUBKTNV-1" source="TQhRW5g1vFuZufK2VAa3-5" target="TQhRW5g1vFuZufK2VAa3-33" edge="1">
          <mxGeometry relative="1" as="geometry">
            <mxPoint x="540" y="420" as="targetPoint" />
          </mxGeometry>
        </mxCell>
        <mxCell id="TQhRW5g1vFuZufK2VAa3-7" value="Google" style="edgeLabel;html=1;align=center;verticalAlign=middle;resizable=0;points=[];" parent="TQhRW5g1vFuZufK2VAa3-6" vertex="1" connectable="0">
          <mxGeometry x="0.0097" y="1" relative="1" as="geometry">
            <mxPoint x="29" y="9" as="offset" />
          </mxGeometry>
        </mxCell>
        <mxCell id="TQhRW5g1vFuZufK2VAa3-10" style="edgeStyle=orthogonalEdgeStyle;rounded=0;orthogonalLoop=1;jettySize=auto;html=1;entryX=0.5;entryY=0;entryDx=0;entryDy=0;" parent="WIyWlLk6GJQsqaUBKTNV-1" source="TQhRW5g1vFuZufK2VAa3-5" target="TQhRW5g1vFuZufK2VAa3-38" edge="1">
          <mxGeometry relative="1" as="geometry" />
        </mxCell>
        <mxCell id="TQhRW5g1vFuZufK2VAa3-11" value="Email&amp;nbsp; / Pass" style="edgeLabel;html=1;align=center;verticalAlign=middle;resizable=0;points=[];" parent="TQhRW5g1vFuZufK2VAa3-10" vertex="1" connectable="0">
          <mxGeometry x="-0.0143" y="-2" relative="1" as="geometry">
            <mxPoint x="42" as="offset" />
          </mxGeometry>
        </mxCell>
        <mxCell id="TQhRW5g1vFuZufK2VAa3-5" value="Choose Account" style="rhombus;whiteSpace=wrap;html=1;" parent="WIyWlLk6GJQsqaUBKTNV-1" vertex="1">
          <mxGeometry x="370" y="170" width="80" height="80" as="geometry" />
        </mxCell>
        <mxCell id="TQhRW5g1vFuZufK2VAa3-9" style="edgeStyle=orthogonalEdgeStyle;rounded=0;orthogonalLoop=1;jettySize=auto;html=1;entryX=1;entryY=0.5;entryDx=0;entryDy=0;exitX=0;exitY=0.5;exitDx=0;exitDy=0;" parent="WIyWlLk6GJQsqaUBKTNV-1" source="TQhRW5g1vFuZufK2VAa3-38" target="TQhRW5g1vFuZufK2VAa3-37" edge="1">
          <mxGeometry relative="1" as="geometry">
            <mxPoint x="280" y="340" as="targetPoint" />
          </mxGeometry>
        </mxCell>
        <mxCell id="TQhRW5g1vFuZufK2VAa3-16" style="edgeStyle=orthogonalEdgeStyle;rounded=0;orthogonalLoop=1;jettySize=auto;html=1;entryX=1;entryY=0.5;entryDx=0;entryDy=0;" parent="WIyWlLk6GJQsqaUBKTNV-1" source="TQhRW5g1vFuZufK2VAa3-12" target="TQhRW5g1vFuZufK2VAa3-41" edge="1">
          <mxGeometry relative="1" as="geometry" />
        </mxCell>
        <mxCell id="TQhRW5g1vFuZufK2VAa3-17" value="Yes" style="edgeLabel;html=1;align=center;verticalAlign=middle;resizable=0;points=[];" parent="TQhRW5g1vFuZufK2VAa3-16" vertex="1" connectable="0">
          <mxGeometry x="-0.6868" y="-1" relative="1" as="geometry">
            <mxPoint y="-14" as="offset" />
          </mxGeometry>
        </mxCell>
        <mxCell id="TQhRW5g1vFuZufK2VAa3-19" style="edgeStyle=orthogonalEdgeStyle;rounded=0;orthogonalLoop=1;jettySize=auto;html=1;exitX=1;exitY=0.5;exitDx=0;exitDy=0;entryX=0;entryY=0.5;entryDx=0;entryDy=0;" parent="WIyWlLk6GJQsqaUBKTNV-1" source="TQhRW5g1vFuZufK2VAa3-12" target="TQhRW5g1vFuZufK2VAa3-30" edge="1">
          <mxGeometry relative="1" as="geometry" />
        </mxCell>
        <mxCell id="TQhRW5g1vFuZufK2VAa3-20" value="No" style="edgeLabel;html=1;align=center;verticalAlign=middle;resizable=0;points=[];" parent="TQhRW5g1vFuZufK2VAa3-19" vertex="1" connectable="0">
          <mxGeometry x="-0.4111" y="1" relative="1" as="geometry">
            <mxPoint x="3" y="-14" as="offset" />
          </mxGeometry>
        </mxCell>
        <mxCell id="TQhRW5g1vFuZufK2VAa3-12" value="&lt;font style=&quot;font-size: 12px;&quot;&gt;User already exists in E/P auth accounts?&lt;/font&gt;" style="rhombus;whiteSpace=wrap;html=1;" parent="WIyWlLk6GJQsqaUBKTNV-1" vertex="1">
          <mxGeometry x="490" y="510" width="100" height="90" as="geometry" />
        </mxCell>
        <mxCell id="TQhRW5g1vFuZufK2VAa3-29" style="edgeStyle=orthogonalEdgeStyle;rounded=0;orthogonalLoop=1;jettySize=auto;html=1;entryX=1;entryY=0.5;entryDx=0;entryDy=0;" parent="WIyWlLk6GJQsqaUBKTNV-1" source="TQhRW5g1vFuZufK2VAa3-28" target="TQhRW5g1vFuZufK2VAa3-41" edge="1">
          <mxGeometry relative="1" as="geometry" />
        </mxCell>
        <mxCell id="TQhRW5g1vFuZufK2VAa3-28" value="Links both accounts" style="rounded=0;whiteSpace=wrap;html=1;" parent="WIyWlLk6GJQsqaUBKTNV-1" vertex="1">
          <mxGeometry x="660" y="620" width="120" height="40" as="geometry" />
        </mxCell>
        <mxCell id="TQhRW5g1vFuZufK2VAa3-32" style="edgeStyle=orthogonalEdgeStyle;rounded=0;orthogonalLoop=1;jettySize=auto;html=1;exitX=0.5;exitY=1;exitDx=0;exitDy=0;entryX=0.5;entryY=0;entryDx=0;entryDy=0;" parent="WIyWlLk6GJQsqaUBKTNV-1" source="TQhRW5g1vFuZufK2VAa3-30" target="TQhRW5g1vFuZufK2VAa3-28" edge="1">
          <mxGeometry relative="1" as="geometry" />
        </mxCell>
        <mxCell id="TQhRW5g1vFuZufK2VAa3-30" value="Creates new account for E/P auth automatically in firebase" style="rounded=0;whiteSpace=wrap;html=1;" parent="WIyWlLk6GJQsqaUBKTNV-1" vertex="1">
          <mxGeometry x="650" y="535" width="140" height="40" as="geometry" />
        </mxCell>
        <mxCell id="TQhRW5g1vFuZufK2VAa3-33" value="Sign in w/ Google" style="rounded=0;whiteSpace=wrap;html=1;" parent="WIyWlLk6GJQsqaUBKTNV-1" vertex="1">
          <mxGeometry x="470" y="420" width="140" height="40" as="geometry" />
        </mxCell>
        <mxCell id="TQhRW5g1vFuZufK2VAa3-34" style="edgeStyle=orthogonalEdgeStyle;rounded=0;orthogonalLoop=1;jettySize=auto;html=1;entryX=0.501;entryY=-0.041;entryDx=0;entryDy=0;entryPerimeter=0;" parent="WIyWlLk6GJQsqaUBKTNV-1" source="TQhRW5g1vFuZufK2VAa3-33" target="TQhRW5g1vFuZufK2VAa3-12" edge="1">
          <mxGeometry relative="1" as="geometry" />
        </mxCell>
        <mxCell id="TQhRW5g1vFuZufK2VAa3-174" style="edgeStyle=orthogonalEdgeStyle;rounded=0;orthogonalLoop=1;jettySize=auto;html=1;entryX=0.5;entryY=0;entryDx=0;entryDy=0;" parent="WIyWlLk6GJQsqaUBKTNV-1" source="TQhRW5g1vFuZufK2VAa3-37" target="TQhRW5g1vFuZufK2VAa3-1" edge="1">
          <mxGeometry relative="1" as="geometry" />
        </mxCell>
        <mxCell id="TQhRW5g1vFuZufK2VAa3-37" value="Sign in" style="rounded=0;whiteSpace=wrap;html=1;" parent="WIyWlLk6GJQsqaUBKTNV-1" vertex="1">
          <mxGeometry x="160" y="320" width="120" height="40" as="geometry" />
        </mxCell>
        <mxCell id="TQhRW5g1vFuZufK2VAa3-38" value="Sign Up Here w/ Email &amp;amp; Password" style="rounded=0;whiteSpace=wrap;html=1;" parent="WIyWlLk6GJQsqaUBKTNV-1" vertex="1">
          <mxGeometry x="350" y="320" width="120" height="40" as="geometry" />
        </mxCell>
        <mxCell id="TQhRW5g1vFuZufK2VAa3-40" value="Sign in&amp;nbsp;" style="rounded=0;whiteSpace=wrap;html=1;" parent="WIyWlLk6GJQsqaUBKTNV-1" vertex="1">
          <mxGeometry x="160" y="535" width="120" height="40" as="geometry" />
        </mxCell>
        <mxCell id="TQhRW5g1vFuZufK2VAa3-43" style="edgeStyle=orthogonalEdgeStyle;rounded=0;orthogonalLoop=1;jettySize=auto;html=1;entryX=0.5;entryY=0;entryDx=0;entryDy=0;" parent="WIyWlLk6GJQsqaUBKTNV-1" source="TQhRW5g1vFuZufK2VAa3-41" target="TQhRW5g1vFuZufK2VAa3-42" edge="1">
          <mxGeometry relative="1" as="geometry" />
        </mxCell>
        <mxCell id="TQhRW5g1vFuZufK2VAa3-59" style="edgeStyle=orthogonalEdgeStyle;rounded=0;orthogonalLoop=1;jettySize=auto;html=1;entryX=1;entryY=0.5;entryDx=0;entryDy=0;" parent="WIyWlLk6GJQsqaUBKTNV-1" source="TQhRW5g1vFuZufK2VAa3-41" target="TQhRW5g1vFuZufK2VAa3-73" edge="1">
          <mxGeometry relative="1" as="geometry" />
        </mxCell>
        <mxCell id="TQhRW5g1vFuZufK2VAa3-60" style="edgeStyle=orthogonalEdgeStyle;rounded=0;orthogonalLoop=1;jettySize=auto;html=1;exitX=0;exitY=0.5;exitDx=0;exitDy=0;entryX=1;entryY=0.5;entryDx=0;entryDy=0;" parent="WIyWlLk6GJQsqaUBKTNV-1" source="TQhRW5g1vFuZufK2VAa3-41" target="TQhRW5g1vFuZufK2VAa3-53" edge="1">
          <mxGeometry relative="1" as="geometry" />
        </mxCell>
        <mxCell id="TQhRW5g1vFuZufK2VAa3-61" style="edgeStyle=orthogonalEdgeStyle;rounded=0;orthogonalLoop=1;jettySize=auto;html=1;entryX=1;entryY=0.5;entryDx=0;entryDy=0;" parent="WIyWlLk6GJQsqaUBKTNV-1" source="TQhRW5g1vFuZufK2VAa3-41" target="TQhRW5g1vFuZufK2VAa3-57" edge="1">
          <mxGeometry relative="1" as="geometry" />
        </mxCell>
        <mxCell id="TQhRW5g1vFuZufK2VAa3-64" style="edgeStyle=orthogonalEdgeStyle;rounded=0;orthogonalLoop=1;jettySize=auto;html=1;entryX=1;entryY=0.5;entryDx=0;entryDy=0;" parent="WIyWlLk6GJQsqaUBKTNV-1" source="TQhRW5g1vFuZufK2VAa3-41" target="TQhRW5g1vFuZufK2VAa3-63" edge="1">
          <mxGeometry relative="1" as="geometry" />
        </mxCell>
        <mxCell id="TQhRW5g1vFuZufK2VAa3-41" value="Dashboard" style="rounded=0;whiteSpace=wrap;html=1;" parent="WIyWlLk6GJQsqaUBKTNV-1" vertex="1">
          <mxGeometry x="160" y="620" width="120" height="40" as="geometry" />
        </mxCell>
        <mxCell id="TQhRW5g1vFuZufK2VAa3-47" style="edgeStyle=orthogonalEdgeStyle;rounded=0;orthogonalLoop=1;jettySize=auto;html=1;entryX=0.5;entryY=0;entryDx=0;entryDy=0;" parent="WIyWlLk6GJQsqaUBKTNV-1" source="TQhRW5g1vFuZufK2VAa3-42" target="TQhRW5g1vFuZufK2VAa3-44" edge="1">
          <mxGeometry relative="1" as="geometry" />
        </mxCell>
        <mxCell id="TQhRW5g1vFuZufK2VAa3-48" style="edgeStyle=orthogonalEdgeStyle;rounded=0;orthogonalLoop=1;jettySize=auto;html=1;exitX=0.75;exitY=1;exitDx=0;exitDy=0;" parent="WIyWlLk6GJQsqaUBKTNV-1" source="TQhRW5g1vFuZufK2VAa3-42" target="TQhRW5g1vFuZufK2VAa3-46" edge="1">
          <mxGeometry relative="1" as="geometry" />
        </mxCell>
        <mxCell id="TQhRW5g1vFuZufK2VAa3-49" style="edgeStyle=orthogonalEdgeStyle;rounded=0;orthogonalLoop=1;jettySize=auto;html=1;exitX=0.25;exitY=1;exitDx=0;exitDy=0;" parent="WIyWlLk6GJQsqaUBKTNV-1" source="TQhRW5g1vFuZufK2VAa3-42" target="TQhRW5g1vFuZufK2VAa3-45" edge="1">
          <mxGeometry relative="1" as="geometry" />
        </mxCell>
        <mxCell id="TQhRW5g1vFuZufK2VAa3-42" value="Select Page" style="rounded=0;whiteSpace=wrap;html=1;" parent="WIyWlLk6GJQsqaUBKTNV-1" vertex="1">
          <mxGeometry x="160" y="710" width="120" height="40" as="geometry" />
        </mxCell>
        <mxCell id="TQhRW5g1vFuZufK2VAa3-44" value="About Us" style="rounded=0;whiteSpace=wrap;html=1;" parent="WIyWlLk6GJQsqaUBKTNV-1" vertex="1">
          <mxGeometry x="160" y="800" width="120" height="40" as="geometry" />
        </mxCell>
        <mxCell id="TQhRW5g1vFuZufK2VAa3-128" style="edgeStyle=orthogonalEdgeStyle;rounded=0;orthogonalLoop=1;jettySize=auto;html=1;entryX=0.5;entryY=0;entryDx=0;entryDy=0;" parent="WIyWlLk6GJQsqaUBKTNV-1" source="TQhRW5g1vFuZufK2VAa3-45" target="TQhRW5g1vFuZufK2VAa3-145" edge="1">
          <mxGeometry relative="1" as="geometry" />
        </mxCell>
        <mxCell id="TQhRW5g1vFuZufK2VAa3-45" value="Saved Drinks" style="rounded=0;whiteSpace=wrap;html=1;" parent="WIyWlLk6GJQsqaUBKTNV-1" vertex="1">
          <mxGeometry y="800" width="120" height="40" as="geometry" />
        </mxCell>
        <mxCell id="TQhRW5g1vFuZufK2VAa3-106" style="edgeStyle=orthogonalEdgeStyle;rounded=0;orthogonalLoop=1;jettySize=auto;html=1;entryX=0;entryY=0.5;entryDx=0;entryDy=0;" parent="WIyWlLk6GJQsqaUBKTNV-1" source="TQhRW5g1vFuZufK2VAa3-46" target="TQhRW5g1vFuZufK2VAa3-100" edge="1">
          <mxGeometry relative="1" as="geometry" />
        </mxCell>
        <mxCell id="TQhRW5g1vFuZufK2VAa3-119" style="edgeStyle=orthogonalEdgeStyle;rounded=0;orthogonalLoop=1;jettySize=auto;html=1;entryX=0;entryY=0.5;entryDx=0;entryDy=0;" parent="WIyWlLk6GJQsqaUBKTNV-1" source="TQhRW5g1vFuZufK2VAa3-46" target="TQhRW5g1vFuZufK2VAa3-103" edge="1">
          <mxGeometry relative="1" as="geometry" />
        </mxCell>
        <mxCell id="TQhRW5g1vFuZufK2VAa3-120" style="edgeStyle=orthogonalEdgeStyle;rounded=0;orthogonalLoop=1;jettySize=auto;html=1;entryX=0;entryY=0.5;entryDx=0;entryDy=0;" parent="WIyWlLk6GJQsqaUBKTNV-1" source="TQhRW5g1vFuZufK2VAa3-46" target="TQhRW5g1vFuZufK2VAa3-99" edge="1">
          <mxGeometry relative="1" as="geometry" />
        </mxCell>
        <mxCell id="TQhRW5g1vFuZufK2VAa3-122" style="edgeStyle=orthogonalEdgeStyle;rounded=0;orthogonalLoop=1;jettySize=auto;html=1;entryX=0;entryY=0.5;entryDx=0;entryDy=0;" parent="WIyWlLk6GJQsqaUBKTNV-1" source="TQhRW5g1vFuZufK2VAa3-46" target="TQhRW5g1vFuZufK2VAa3-102" edge="1">
          <mxGeometry relative="1" as="geometry" />
        </mxCell>
        <mxCell id="TQhRW5g1vFuZufK2VAa3-46" value="Settings" style="rounded=0;whiteSpace=wrap;html=1;" parent="WIyWlLk6GJQsqaUBKTNV-1" vertex="1">
          <mxGeometry x="320" y="800" width="120" height="40" as="geometry" />
        </mxCell>
        <mxCell id="TQhRW5g1vFuZufK2VAa3-78" style="edgeStyle=orthogonalEdgeStyle;rounded=0;orthogonalLoop=1;jettySize=auto;html=1;exitX=0;exitY=0.5;exitDx=0;exitDy=0;entryX=1;entryY=0.5;entryDx=0;entryDy=0;" parent="WIyWlLk6GJQsqaUBKTNV-1" source="TQhRW5g1vFuZufK2VAa3-52" target="TQhRW5g1vFuZufK2VAa3-77" edge="1">
          <mxGeometry relative="1" as="geometry" />
        </mxCell>
        <mxCell id="TQhRW5g1vFuZufK2VAa3-52" value="Search by Name" style="rounded=0;whiteSpace=wrap;html=1;" parent="WIyWlLk6GJQsqaUBKTNV-1" vertex="1">
          <mxGeometry x="-310" y="380" width="120" height="40" as="geometry" />
        </mxCell>
        <mxCell id="TQhRW5g1vFuZufK2VAa3-68" style="edgeStyle=orthogonalEdgeStyle;rounded=0;orthogonalLoop=1;jettySize=auto;html=1;entryX=1;entryY=0.5;entryDx=0;entryDy=0;" parent="WIyWlLk6GJQsqaUBKTNV-1" source="TQhRW5g1vFuZufK2VAa3-53" target="TQhRW5g1vFuZufK2VAa3-56" edge="1">
          <mxGeometry relative="1" as="geometry" />
        </mxCell>
        <mxCell id="TQhRW5g1vFuZufK2VAa3-53" value="Generate 5 Random Drinks" style="rounded=0;whiteSpace=wrap;html=1;" parent="WIyWlLk6GJQsqaUBKTNV-1" vertex="1">
          <mxGeometry x="-130" y="564" width="120" height="40" as="geometry" />
        </mxCell>
        <mxCell id="TQhRW5g1vFuZufK2VAa3-82" style="edgeStyle=orthogonalEdgeStyle;rounded=0;orthogonalLoop=1;jettySize=auto;html=1;entryX=1;entryY=0.5;entryDx=0;entryDy=0;" parent="WIyWlLk6GJQsqaUBKTNV-1" source="TQhRW5g1vFuZufK2VAa3-54" target="TQhRW5g1vFuZufK2VAa3-80" edge="1">
          <mxGeometry relative="1" as="geometry" />
        </mxCell>
        <mxCell id="TQhRW5g1vFuZufK2VAa3-54" value="Popular Cocktails" style="rounded=0;whiteSpace=wrap;html=1;" parent="WIyWlLk6GJQsqaUBKTNV-1" vertex="1">
          <mxGeometry x="-310" y="500" width="120" height="40" as="geometry" />
        </mxCell>
        <mxCell id="TQhRW5g1vFuZufK2VAa3-84" style="edgeStyle=orthogonalEdgeStyle;rounded=0;orthogonalLoop=1;jettySize=auto;html=1;entryX=1;entryY=0.5;entryDx=0;entryDy=0;" parent="WIyWlLk6GJQsqaUBKTNV-1" source="TQhRW5g1vFuZufK2VAa3-55" target="TQhRW5g1vFuZufK2VAa3-80" edge="1">
          <mxGeometry relative="1" as="geometry" />
        </mxCell>
        <mxCell id="TQhRW5g1vFuZufK2VAa3-55" value="Alcoholic" style="rounded=0;whiteSpace=wrap;html=1;" parent="WIyWlLk6GJQsqaUBKTNV-1" vertex="1">
          <mxGeometry x="-310" y="690" width="120" height="40" as="geometry" />
        </mxCell>
        <mxCell id="TQhRW5g1vFuZufK2VAa3-70" style="edgeStyle=orthogonalEdgeStyle;rounded=0;orthogonalLoop=1;jettySize=auto;html=1;entryX=0.5;entryY=0;entryDx=0;entryDy=0;" parent="WIyWlLk6GJQsqaUBKTNV-1" source="TQhRW5g1vFuZufK2VAa3-56" target="TQhRW5g1vFuZufK2VAa3-69" edge="1">
          <mxGeometry relative="1" as="geometry" />
        </mxCell>
        <mxCell id="TQhRW5g1vFuZufK2VAa3-83" style="edgeStyle=orthogonalEdgeStyle;rounded=0;orthogonalLoop=1;jettySize=auto;html=1;entryX=1;entryY=0.5;entryDx=0;entryDy=0;" parent="WIyWlLk6GJQsqaUBKTNV-1" source="TQhRW5g1vFuZufK2VAa3-56" target="TQhRW5g1vFuZufK2VAa3-80" edge="1">
          <mxGeometry relative="1" as="geometry" />
        </mxCell>
        <mxCell id="TQhRW5g1vFuZufK2VAa3-56" value="Discover" style="rounded=0;whiteSpace=wrap;html=1;" parent="WIyWlLk6GJQsqaUBKTNV-1" vertex="1">
          <mxGeometry x="-310" y="564" width="120" height="40" as="geometry" />
        </mxCell>
        <mxCell id="TQhRW5g1vFuZufK2VAa3-62" style="edgeStyle=orthogonalEdgeStyle;rounded=0;orthogonalLoop=1;jettySize=auto;html=1;entryX=1;entryY=0.5;entryDx=0;entryDy=0;" parent="WIyWlLk6GJQsqaUBKTNV-1" source="TQhRW5g1vFuZufK2VAa3-57" target="TQhRW5g1vFuZufK2VAa3-54" edge="1">
          <mxGeometry relative="1" as="geometry" />
        </mxCell>
        <mxCell id="TQhRW5g1vFuZufK2VAa3-57" value="Call API created by the devs" style="rounded=0;whiteSpace=wrap;html=1;" parent="WIyWlLk6GJQsqaUBKTNV-1" vertex="1">
          <mxGeometry x="-130" y="500" width="120" height="40" as="geometry" />
        </mxCell>
        <mxCell id="TQhRW5g1vFuZufK2VAa3-85" style="edgeStyle=orthogonalEdgeStyle;rounded=0;orthogonalLoop=1;jettySize=auto;html=1;entryX=0.5;entryY=1;entryDx=0;entryDy=0;" parent="WIyWlLk6GJQsqaUBKTNV-1" source="TQhRW5g1vFuZufK2VAa3-58" target="TQhRW5g1vFuZufK2VAa3-80" edge="1">
          <mxGeometry relative="1" as="geometry" />
        </mxCell>
        <mxCell id="TQhRW5g1vFuZufK2VAa3-58" value="Non-Alcoholic" style="rounded=0;whiteSpace=wrap;html=1;" parent="WIyWlLk6GJQsqaUBKTNV-1" vertex="1">
          <mxGeometry x="-310" y="750" width="120" height="40" as="geometry" />
        </mxCell>
        <mxCell id="TQhRW5g1vFuZufK2VAa3-66" style="edgeStyle=orthogonalEdgeStyle;rounded=0;orthogonalLoop=1;jettySize=auto;html=1;entryX=1;entryY=0.5;entryDx=0;entryDy=0;" parent="WIyWlLk6GJQsqaUBKTNV-1" source="TQhRW5g1vFuZufK2VAa3-63" target="TQhRW5g1vFuZufK2VAa3-55" edge="1">
          <mxGeometry relative="1" as="geometry" />
        </mxCell>
        <mxCell id="TQhRW5g1vFuZufK2VAa3-67" style="edgeStyle=orthogonalEdgeStyle;rounded=0;orthogonalLoop=1;jettySize=auto;html=1;entryX=1;entryY=0.5;entryDx=0;entryDy=0;" parent="WIyWlLk6GJQsqaUBKTNV-1" source="TQhRW5g1vFuZufK2VAa3-63" target="TQhRW5g1vFuZufK2VAa3-58" edge="1">
          <mxGeometry relative="1" as="geometry" />
        </mxCell>
        <mxCell id="TQhRW5g1vFuZufK2VAa3-63" value="Calls Open-Source API" style="rounded=0;whiteSpace=wrap;html=1;" parent="WIyWlLk6GJQsqaUBKTNV-1" vertex="1">
          <mxGeometry x="-130" y="720" width="120" height="40" as="geometry" />
        </mxCell>
        <mxCell id="TQhRW5g1vFuZufK2VAa3-71" style="edgeStyle=orthogonalEdgeStyle;rounded=0;orthogonalLoop=1;jettySize=auto;html=1;entryX=0.5;entryY=1;entryDx=0;entryDy=0;" parent="WIyWlLk6GJQsqaUBKTNV-1" source="TQhRW5g1vFuZufK2VAa3-69" target="TQhRW5g1vFuZufK2VAa3-53" edge="1">
          <mxGeometry relative="1" as="geometry" />
        </mxCell>
        <mxCell id="TQhRW5g1vFuZufK2VAa3-69" value="Reload Button" style="rounded=0;whiteSpace=wrap;html=1;" parent="WIyWlLk6GJQsqaUBKTNV-1" vertex="1">
          <mxGeometry x="-310" y="630" width="120" height="40" as="geometry" />
        </mxCell>
        <mxCell id="TQhRW5g1vFuZufK2VAa3-75" style="edgeStyle=orthogonalEdgeStyle;rounded=0;orthogonalLoop=1;jettySize=auto;html=1;exitX=0;exitY=0;exitDx=0;exitDy=0;entryX=1;entryY=0.5;entryDx=0;entryDy=0;" parent="WIyWlLk6GJQsqaUBKTNV-1" source="TQhRW5g1vFuZufK2VAa3-73" target="TQhRW5g1vFuZufK2VAa3-52" edge="1">
          <mxGeometry relative="1" as="geometry" />
        </mxCell>
        <mxCell id="TQhRW5g1vFuZufK2VAa3-76" style="edgeStyle=orthogonalEdgeStyle;rounded=0;orthogonalLoop=1;jettySize=auto;html=1;exitX=0;exitY=1;exitDx=0;exitDy=0;entryX=1;entryY=0.5;entryDx=0;entryDy=0;" parent="WIyWlLk6GJQsqaUBKTNV-1" source="TQhRW5g1vFuZufK2VAa3-73" target="TQhRW5g1vFuZufK2VAa3-74" edge="1">
          <mxGeometry relative="1" as="geometry" />
        </mxCell>
        <mxCell id="TQhRW5g1vFuZufK2VAa3-73" value="Search Cocktail" style="rhombus;whiteSpace=wrap;html=1;" parent="WIyWlLk6GJQsqaUBKTNV-1" vertex="1">
          <mxGeometry x="-90" y="390" width="80" height="80" as="geometry" />
        </mxCell>
        <mxCell id="TQhRW5g1vFuZufK2VAa3-79" style="edgeStyle=orthogonalEdgeStyle;rounded=0;orthogonalLoop=1;jettySize=auto;html=1;entryX=1;entryY=0.5;entryDx=0;entryDy=0;" parent="WIyWlLk6GJQsqaUBKTNV-1" source="TQhRW5g1vFuZufK2VAa3-74" target="TQhRW5g1vFuZufK2VAa3-77" edge="1">
          <mxGeometry relative="1" as="geometry">
            <mxPoint x="-350" y="430" as="targetPoint" />
          </mxGeometry>
        </mxCell>
        <mxCell id="TQhRW5g1vFuZufK2VAa3-74" value="Search by Ingredient" style="rounded=0;whiteSpace=wrap;html=1;" parent="WIyWlLk6GJQsqaUBKTNV-1" vertex="1">
          <mxGeometry x="-310" y="440" width="120" height="40" as="geometry" />
        </mxCell>
        <mxCell id="TQhRW5g1vFuZufK2VAa3-81" style="edgeStyle=orthogonalEdgeStyle;rounded=0;orthogonalLoop=1;jettySize=auto;html=1;" parent="WIyWlLk6GJQsqaUBKTNV-1" source="TQhRW5g1vFuZufK2VAa3-77" target="TQhRW5g1vFuZufK2VAa3-80" edge="1">
          <mxGeometry relative="1" as="geometry" />
        </mxCell>
        <mxCell id="TQhRW5g1vFuZufK2VAa3-77" value="Drink Results" style="rounded=0;whiteSpace=wrap;html=1;" parent="WIyWlLk6GJQsqaUBKTNV-1" vertex="1">
          <mxGeometry x="-500" y="410" width="120" height="40" as="geometry" />
        </mxCell>
        <mxCell id="TQhRW5g1vFuZufK2VAa3-87" style="edgeStyle=orthogonalEdgeStyle;rounded=0;orthogonalLoop=1;jettySize=auto;html=1;entryX=1;entryY=0.5;entryDx=0;entryDy=0;" parent="WIyWlLk6GJQsqaUBKTNV-1" source="TQhRW5g1vFuZufK2VAa3-80" target="TQhRW5g1vFuZufK2VAa3-86" edge="1">
          <mxGeometry relative="1" as="geometry" />
        </mxCell>
        <mxCell id="TQhRW5g1vFuZufK2VAa3-80" value="View Drink" style="rounded=0;whiteSpace=wrap;html=1;" parent="WIyWlLk6GJQsqaUBKTNV-1" vertex="1">
          <mxGeometry x="-500" y="604" width="120" height="40" as="geometry" />
        </mxCell>
        <mxCell id="TQhRW5g1vFuZufK2VAa3-89" style="edgeStyle=orthogonalEdgeStyle;rounded=0;orthogonalLoop=1;jettySize=auto;html=1;entryX=1;entryY=0.5;entryDx=0;entryDy=0;" parent="WIyWlLk6GJQsqaUBKTNV-1" source="TQhRW5g1vFuZufK2VAa3-86" target="TQhRW5g1vFuZufK2VAa3-88" edge="1">
          <mxGeometry relative="1" as="geometry" />
        </mxCell>
        <mxCell id="TQhRW5g1vFuZufK2VAa3-86" value="Display Drink Details" style="rounded=0;whiteSpace=wrap;html=1;" parent="WIyWlLk6GJQsqaUBKTNV-1" vertex="1">
          <mxGeometry x="-650" y="604" width="120" height="40" as="geometry" />
        </mxCell>
        <mxCell id="TQhRW5g1vFuZufK2VAa3-91" style="edgeStyle=orthogonalEdgeStyle;rounded=0;orthogonalLoop=1;jettySize=auto;html=1;entryX=0.5;entryY=1;entryDx=0;entryDy=0;" parent="WIyWlLk6GJQsqaUBKTNV-1" source="TQhRW5g1vFuZufK2VAa3-88" target="TQhRW5g1vFuZufK2VAa3-90" edge="1">
          <mxGeometry relative="1" as="geometry" />
        </mxCell>
        <mxCell id="TQhRW5g1vFuZufK2VAa3-96" value="No" style="edgeLabel;html=1;align=center;verticalAlign=middle;resizable=0;points=[];" parent="TQhRW5g1vFuZufK2VAa3-91" vertex="1" connectable="0">
          <mxGeometry x="0.1184" relative="1" as="geometry">
            <mxPoint x="10" y="7" as="offset" />
          </mxGeometry>
        </mxCell>
        <mxCell id="TQhRW5g1vFuZufK2VAa3-93" style="edgeStyle=orthogonalEdgeStyle;rounded=0;orthogonalLoop=1;jettySize=auto;html=1;entryX=0.5;entryY=0;entryDx=0;entryDy=0;" parent="WIyWlLk6GJQsqaUBKTNV-1" source="TQhRW5g1vFuZufK2VAa3-88" target="TQhRW5g1vFuZufK2VAa3-92" edge="1">
          <mxGeometry relative="1" as="geometry" />
        </mxCell>
        <mxCell id="TQhRW5g1vFuZufK2VAa3-94" value="Yes" style="edgeLabel;html=1;align=center;verticalAlign=middle;resizable=0;points=[];" parent="TQhRW5g1vFuZufK2VAa3-93" vertex="1" connectable="0">
          <mxGeometry x="-0.5582" y="-2" relative="1" as="geometry">
            <mxPoint x="12" y="13" as="offset" />
          </mxGeometry>
        </mxCell>
        <mxCell id="TQhRW5g1vFuZufK2VAa3-88" value="Is Drink Saved?" style="rhombus;whiteSpace=wrap;html=1;" parent="WIyWlLk6GJQsqaUBKTNV-1" vertex="1">
          <mxGeometry x="-780" y="584" width="80" height="80" as="geometry" />
        </mxCell>
        <mxCell id="TQhRW5g1vFuZufK2VAa3-90" value="Option to Save Drink" style="rounded=0;whiteSpace=wrap;html=1;" parent="WIyWlLk6GJQsqaUBKTNV-1" vertex="1">
          <mxGeometry x="-800" y="495" width="120" height="40" as="geometry" />
        </mxCell>
        <mxCell id="TQhRW5g1vFuZufK2VAa3-92" value="Option to Remove from Saved Drinks" style="rounded=0;whiteSpace=wrap;html=1;" parent="WIyWlLk6GJQsqaUBKTNV-1" vertex="1">
          <mxGeometry x="-800" y="720" width="120" height="40" as="geometry" />
        </mxCell>
        <mxCell id="TQhRW5g1vFuZufK2VAa3-99" value="Account Details" style="rounded=0;whiteSpace=wrap;html=1;" parent="WIyWlLk6GJQsqaUBKTNV-1" vertex="1">
          <mxGeometry x="480" y="710" width="120" height="40" as="geometry" />
        </mxCell>
        <mxCell id="TQhRW5g1vFuZufK2VAa3-107" style="edgeStyle=orthogonalEdgeStyle;rounded=0;orthogonalLoop=1;jettySize=auto;html=1;entryX=0;entryY=0.5;entryDx=0;entryDy=0;" parent="WIyWlLk6GJQsqaUBKTNV-1" source="TQhRW5g1vFuZufK2VAa3-100" target="TQhRW5g1vFuZufK2VAa3-104" edge="1">
          <mxGeometry relative="1" as="geometry" />
        </mxCell>
        <mxCell id="TQhRW5g1vFuZufK2VAa3-100" value="Edit Password" style="rounded=0;whiteSpace=wrap;html=1;" parent="WIyWlLk6GJQsqaUBKTNV-1" vertex="1">
          <mxGeometry x="480" y="770" width="120" height="40" as="geometry" />
        </mxCell>
        <mxCell id="TQhRW5g1vFuZufK2VAa3-102" value="Logout" style="rounded=1;whiteSpace=wrap;html=1;" parent="WIyWlLk6GJQsqaUBKTNV-1" vertex="1">
          <mxGeometry x="480" y="890" width="120" height="40" as="geometry" />
        </mxCell>
        <mxCell id="TQhRW5g1vFuZufK2VAa3-103" value="Link Google Account" style="rounded=0;whiteSpace=wrap;html=1;" parent="WIyWlLk6GJQsqaUBKTNV-1" vertex="1">
          <mxGeometry x="480" y="830" width="120" height="40" as="geometry" />
        </mxCell>
        <mxCell id="TQhRW5g1vFuZufK2VAa3-113" style="edgeStyle=orthogonalEdgeStyle;rounded=0;orthogonalLoop=1;jettySize=auto;html=1;entryX=0.5;entryY=0;entryDx=0;entryDy=0;" parent="WIyWlLk6GJQsqaUBKTNV-1" source="TQhRW5g1vFuZufK2VAa3-104" target="TQhRW5g1vFuZufK2VAa3-105" edge="1">
          <mxGeometry relative="1" as="geometry" />
        </mxCell>
        <mxCell id="TQhRW5g1vFuZufK2VAa3-104" value="Enter Old &amp;amp; New Pass" style="rounded=0;whiteSpace=wrap;html=1;" parent="WIyWlLk6GJQsqaUBKTNV-1" vertex="1">
          <mxGeometry x="660" y="770" width="120" height="40" as="geometry" />
        </mxCell>
        <mxCell id="TQhRW5g1vFuZufK2VAa3-112" style="edgeStyle=orthogonalEdgeStyle;rounded=0;orthogonalLoop=1;jettySize=auto;html=1;entryX=1;entryY=0.5;entryDx=0;entryDy=0;exitX=1;exitY=0.5;exitDx=0;exitDy=0;" parent="WIyWlLk6GJQsqaUBKTNV-1" source="TQhRW5g1vFuZufK2VAa3-105" target="TQhRW5g1vFuZufK2VAa3-104" edge="1">
          <mxGeometry relative="1" as="geometry">
            <Array as="points">
              <mxPoint x="810" y="890" />
              <mxPoint x="810" y="790" />
            </Array>
          </mxGeometry>
        </mxCell>
        <mxCell id="TQhRW5g1vFuZufK2VAa3-118" value="No" style="edgeLabel;html=1;align=center;verticalAlign=middle;resizable=0;points=[];" parent="TQhRW5g1vFuZufK2VAa3-112" vertex="1" connectable="0">
          <mxGeometry x="-0.0169" relative="1" as="geometry">
            <mxPoint x="-10" y="-2" as="offset" />
          </mxGeometry>
        </mxCell>
        <mxCell id="TQhRW5g1vFuZufK2VAa3-115" style="edgeStyle=orthogonalEdgeStyle;rounded=0;orthogonalLoop=1;jettySize=auto;html=1;entryX=0.5;entryY=0;entryDx=0;entryDy=0;" parent="WIyWlLk6GJQsqaUBKTNV-1" source="TQhRW5g1vFuZufK2VAa3-105" target="TQhRW5g1vFuZufK2VAa3-114" edge="1">
          <mxGeometry relative="1" as="geometry" />
        </mxCell>
        <mxCell id="TQhRW5g1vFuZufK2VAa3-117" value="Yes" style="edgeLabel;html=1;align=center;verticalAlign=middle;resizable=0;points=[];" parent="TQhRW5g1vFuZufK2VAa3-115" vertex="1" connectable="0">
          <mxGeometry x="-0.4638" relative="1" as="geometry">
            <mxPoint x="10" y="7" as="offset" />
          </mxGeometry>
        </mxCell>
        <mxCell id="TQhRW5g1vFuZufK2VAa3-105" value="Is Correct?" style="rhombus;whiteSpace=wrap;html=1;" parent="WIyWlLk6GJQsqaUBKTNV-1" vertex="1">
          <mxGeometry x="680" y="850" width="80" height="80" as="geometry" />
        </mxCell>
        <mxCell id="TQhRW5g1vFuZufK2VAa3-116" style="edgeStyle=orthogonalEdgeStyle;rounded=0;orthogonalLoop=1;jettySize=auto;html=1;entryX=0.5;entryY=1;entryDx=0;entryDy=0;" parent="WIyWlLk6GJQsqaUBKTNV-1" source="TQhRW5g1vFuZufK2VAa3-114" target="TQhRW5g1vFuZufK2VAa3-46" edge="1">
          <mxGeometry relative="1" as="geometry" />
        </mxCell>
        <mxCell id="TQhRW5g1vFuZufK2VAa3-114" value="Password Changed" style="rounded=0;whiteSpace=wrap;html=1;" parent="WIyWlLk6GJQsqaUBKTNV-1" vertex="1">
          <mxGeometry x="660" y="980" width="120" height="40" as="geometry" />
        </mxCell>
        <mxCell id="TQhRW5g1vFuZufK2VAa3-131" style="edgeStyle=orthogonalEdgeStyle;rounded=0;orthogonalLoop=1;jettySize=auto;html=1;entryX=0.5;entryY=0;entryDx=0;entryDy=0;" parent="WIyWlLk6GJQsqaUBKTNV-1" source="TQhRW5g1vFuZufK2VAa3-123" target="TQhRW5g1vFuZufK2VAa3-130" edge="1">
          <mxGeometry relative="1" as="geometry" />
        </mxCell>
        <mxCell id="TQhRW5g1vFuZufK2VAa3-123" value="Display User&#39;s Saved Drinks" style="rounded=0;whiteSpace=wrap;html=1;" parent="WIyWlLk6GJQsqaUBKTNV-1" vertex="1">
          <mxGeometry y="950" width="120" height="40" as="geometry" />
        </mxCell>
        <mxCell id="TQhRW5g1vFuZufK2VAa3-127" style="edgeStyle=orthogonalEdgeStyle;rounded=0;orthogonalLoop=1;jettySize=auto;html=1;entryX=0;entryY=0.5;entryDx=0;entryDy=0;exitX=0.544;exitY=1.012;exitDx=0;exitDy=0;exitPerimeter=0;" parent="WIyWlLk6GJQsqaUBKTNV-1" source="TQhRW5g1vFuZufK2VAa3-124" target="TQhRW5g1vFuZufK2VAa3-123" edge="1">
          <mxGeometry relative="1" as="geometry" />
        </mxCell>
        <mxCell id="TQhRW5g1vFuZufK2VAa3-124" value="Reload Button" style="rounded=0;whiteSpace=wrap;html=1;" parent="WIyWlLk6GJQsqaUBKTNV-1" vertex="1">
          <mxGeometry x="-170" y="880" width="120" height="40" as="geometry" />
        </mxCell>
        <mxCell id="TQhRW5g1vFuZufK2VAa3-133" style="edgeStyle=orthogonalEdgeStyle;rounded=0;orthogonalLoop=1;jettySize=auto;html=1;entryX=1;entryY=0.5;entryDx=0;entryDy=0;" parent="WIyWlLk6GJQsqaUBKTNV-1" source="TQhRW5g1vFuZufK2VAa3-130" target="TQhRW5g1vFuZufK2VAa3-132" edge="1">
          <mxGeometry relative="1" as="geometry" />
        </mxCell>
        <mxCell id="TQhRW5g1vFuZufK2VAa3-137" style="edgeStyle=orthogonalEdgeStyle;rounded=0;orthogonalLoop=1;jettySize=auto;html=1;entryX=0.5;entryY=0;entryDx=0;entryDy=0;" parent="WIyWlLk6GJQsqaUBKTNV-1" source="TQhRW5g1vFuZufK2VAa3-130" target="TQhRW5g1vFuZufK2VAa3-135" edge="1">
          <mxGeometry relative="1" as="geometry" />
        </mxCell>
        <mxCell id="TQhRW5g1vFuZufK2VAa3-130" value="View Drink Details" style="rounded=0;whiteSpace=wrap;html=1;" parent="WIyWlLk6GJQsqaUBKTNV-1" vertex="1">
          <mxGeometry y="1020" width="120" height="40" as="geometry" />
        </mxCell>
        <mxCell id="TQhRW5g1vFuZufK2VAa3-134" style="edgeStyle=orthogonalEdgeStyle;rounded=0;orthogonalLoop=1;jettySize=auto;html=1;entryX=0;entryY=0.5;entryDx=0;entryDy=0;exitX=0;exitY=0.5;exitDx=0;exitDy=0;" parent="WIyWlLk6GJQsqaUBKTNV-1" source="TQhRW5g1vFuZufK2VAa3-132" target="TQhRW5g1vFuZufK2VAa3-45" edge="1">
          <mxGeometry relative="1" as="geometry">
            <Array as="points">
              <mxPoint x="-200" y="1040" />
              <mxPoint x="-200" y="820" />
            </Array>
          </mxGeometry>
        </mxCell>
        <mxCell id="TQhRW5g1vFuZufK2VAa3-132" value="Remove From Saved Drinks" style="rounded=0;whiteSpace=wrap;html=1;" parent="WIyWlLk6GJQsqaUBKTNV-1" vertex="1">
          <mxGeometry x="-160" y="1020" width="120" height="40" as="geometry" />
        </mxCell>
        <mxCell id="TQhRW5g1vFuZufK2VAa3-151" style="edgeStyle=orthogonalEdgeStyle;rounded=0;orthogonalLoop=1;jettySize=auto;html=1;entryX=1;entryY=0.5;entryDx=0;entryDy=0;exitX=1;exitY=0.5;exitDx=0;exitDy=0;" parent="WIyWlLk6GJQsqaUBKTNV-1" source="TQhRW5g1vFuZufK2VAa3-135" target="TQhRW5g1vFuZufK2VAa3-130" edge="1">
          <mxGeometry relative="1" as="geometry" />
        </mxCell>
        <mxCell id="TQhRW5g1vFuZufK2VAa3-135" value="Edit Drink Details" style="rounded=0;whiteSpace=wrap;html=1;" parent="WIyWlLk6GJQsqaUBKTNV-1" vertex="1">
          <mxGeometry y="1090" width="120" height="40" as="geometry" />
        </mxCell>
        <mxCell id="TQhRW5g1vFuZufK2VAa3-148" style="edgeStyle=orthogonalEdgeStyle;rounded=0;orthogonalLoop=1;jettySize=auto;html=1;entryX=0.5;entryY=0;entryDx=0;entryDy=0;" parent="WIyWlLk6GJQsqaUBKTNV-1" source="TQhRW5g1vFuZufK2VAa3-145" target="TQhRW5g1vFuZufK2VAa3-123" edge="1">
          <mxGeometry relative="1" as="geometry" />
        </mxCell>
        <mxCell id="TQhRW5g1vFuZufK2VAa3-149" value="Yes" style="edgeLabel;html=1;align=center;verticalAlign=middle;resizable=0;points=[];" parent="TQhRW5g1vFuZufK2VAa3-148" vertex="1" connectable="0">
          <mxGeometry x="0.5937" relative="1" as="geometry">
            <mxPoint x="20" as="offset" />
          </mxGeometry>
        </mxCell>
        <mxCell id="TQhRW5g1vFuZufK2VAa3-145" value="Is data up-to-date?" style="rhombus;whiteSpace=wrap;html=1;" parent="WIyWlLk6GJQsqaUBKTNV-1" vertex="1">
          <mxGeometry x="25" y="870" width="70" height="60" as="geometry" />
        </mxCell>
        <mxCell id="TQhRW5g1vFuZufK2VAa3-147" style="edgeStyle=orthogonalEdgeStyle;rounded=0;orthogonalLoop=1;jettySize=auto;html=1;entryX=1;entryY=0.5;entryDx=0;entryDy=0;" parent="WIyWlLk6GJQsqaUBKTNV-1" source="TQhRW5g1vFuZufK2VAa3-145" target="TQhRW5g1vFuZufK2VAa3-124" edge="1">
          <mxGeometry relative="1" as="geometry" />
        </mxCell>
        <mxCell id="TQhRW5g1vFuZufK2VAa3-150" value="No" style="edgeLabel;html=1;align=center;verticalAlign=middle;resizable=0;points=[];" parent="TQhRW5g1vFuZufK2VAa3-147" vertex="1" connectable="0">
          <mxGeometry x="-0.2152" y="-1" relative="1" as="geometry">
            <mxPoint x="5" y="-9" as="offset" />
          </mxGeometry>
        </mxCell>
        <mxCell id="TQhRW5g1vFuZufK2VAa3-153" style="edgeStyle=orthogonalEdgeStyle;rounded=0;orthogonalLoop=1;jettySize=auto;html=1;entryX=0;entryY=0.5;entryDx=0;entryDy=0;entryPerimeter=0;" parent="WIyWlLk6GJQsqaUBKTNV-1" source="TQhRW5g1vFuZufK2VAa3-102" target="TQhRW5g1vFuZufK2VAa3-152" edge="1">
          <mxGeometry relative="1" as="geometry" />
        </mxCell>
        <mxCell id="TQhRW5g1vFuZufK2VAa3-158" value="" style="group" parent="WIyWlLk6GJQsqaUBKTNV-1" vertex="1" connectable="0">
          <mxGeometry x="615" y="885" width="60" height="50" as="geometry" />
        </mxCell>
        <mxCell id="TQhRW5g1vFuZufK2VAa3-152" value="" style="verticalLabelPosition=bottom;verticalAlign=top;html=1;shape=mxgraph.flowchart.on-page_reference;" parent="TQhRW5g1vFuZufK2VAa3-158" vertex="1">
          <mxGeometry x="5" width="50" height="50" as="geometry" />
        </mxCell>
        <mxCell id="TQhRW5g1vFuZufK2VAa3-157" value="A" style="text;html=1;strokeColor=none;fillColor=none;align=center;verticalAlign=middle;whiteSpace=wrap;rounded=0;" parent="TQhRW5g1vFuZufK2VAa3-158" vertex="1">
          <mxGeometry y="10" width="60" height="30" as="geometry" />
        </mxCell>
        <mxCell id="TQhRW5g1vFuZufK2VAa3-166" value="" style="group" parent="WIyWlLk6GJQsqaUBKTNV-1" vertex="1" connectable="0">
          <mxGeometry x="40" y="85" width="60" height="50" as="geometry" />
        </mxCell>
        <mxCell id="TQhRW5g1vFuZufK2VAa3-167" value="" style="verticalLabelPosition=bottom;verticalAlign=top;html=1;shape=mxgraph.flowchart.on-page_reference;" parent="TQhRW5g1vFuZufK2VAa3-166" vertex="1">
          <mxGeometry x="5" width="50" height="50" as="geometry" />
        </mxCell>
        <mxCell id="TQhRW5g1vFuZufK2VAa3-168" value="A" style="text;html=1;strokeColor=none;fillColor=none;align=center;verticalAlign=middle;whiteSpace=wrap;rounded=0;" parent="TQhRW5g1vFuZufK2VAa3-166" vertex="1">
          <mxGeometry y="10" width="60" height="30" as="geometry" />
        </mxCell>
        <mxCell id="TQhRW5g1vFuZufK2VAa3-170" style="edgeStyle=orthogonalEdgeStyle;rounded=0;orthogonalLoop=1;jettySize=auto;html=1;entryX=0.5;entryY=0;entryDx=0;entryDy=0;" parent="WIyWlLk6GJQsqaUBKTNV-1" source="TQhRW5g1vFuZufK2VAa3-169" target="WIyWlLk6GJQsqaUBKTNV-6" edge="1">
          <mxGeometry relative="1" as="geometry" />
        </mxCell>
        <mxCell id="TQhRW5g1vFuZufK2VAa3-169" value="Login Screen" style="rounded=0;whiteSpace=wrap;html=1;" parent="WIyWlLk6GJQsqaUBKTNV-1" vertex="1">
          <mxGeometry x="160" y="90" width="120" height="40" as="geometry" />
        </mxCell>
        <mxCell id="TQhRW5g1vFuZufK2VAa3-171" style="edgeStyle=orthogonalEdgeStyle;rounded=0;orthogonalLoop=1;jettySize=auto;html=1;entryX=0;entryY=0.5;entryDx=0;entryDy=0;" parent="WIyWlLk6GJQsqaUBKTNV-1" source="TQhRW5g1vFuZufK2VAa3-168" target="TQhRW5g1vFuZufK2VAa3-169" edge="1">
          <mxGeometry relative="1" as="geometry" />
        </mxCell>
        <mxCell id="TQhRW5g1vFuZufK2VAa3-176" style="edgeStyle=orthogonalEdgeStyle;rounded=0;orthogonalLoop=1;jettySize=auto;html=1;entryX=0.498;entryY=-0.09;entryDx=0;entryDy=0;entryPerimeter=0;" parent="WIyWlLk6GJQsqaUBKTNV-1" source="WIyWlLk6GJQsqaUBKTNV-6" target="TQhRW5g1vFuZufK2VAa3-37" edge="1">
          <mxGeometry relative="1" as="geometry" />
        </mxCell>
        <mxCell id="TQhRW5g1vFuZufK2VAa3-178" value="Yes" style="edgeLabel;html=1;align=center;verticalAlign=middle;resizable=0;points=[];" parent="TQhRW5g1vFuZufK2VAa3-176" vertex="1" connectable="0">
          <mxGeometry x="-0.1512" y="1" relative="1" as="geometry">
            <mxPoint x="9" as="offset" />
          </mxGeometry>
        </mxCell>
      </root>
    </mxGraphModel>
  </diagram>
</mxfile>
